# File created by Blade
# Date/Time:  Fri Jan 16 19:00:24 2015
# Frame Rate: 120.000 fps
#------------------------------------------------------
:FULLY-SPECIFIED
:DEGREES
1040
root 18.666747 36.772658 -20.803186 -190.486845 -14.274440 -167.758697
Spine 7.590369 9.610253 -22.563356
Head -3.199698 -24.270666 28.802001
LeftShoulder -5.948484 -21.822990 4.246230
LeftArm -29.350639 -0.774427 -45.867498
LeftForeArm -8.122339 -0.000000 7.932796
LeftHand -6.541325 -0.000000 7.864845
LeftHandThumb1 -26.253704 0.000000 33.147579
RightShoulder -11.178685 -8.091456 -0.091572
RightArm 1.734694 59.651172 19.628355
RightForeArm -15.606441 0.000000 51.710014
RightHand -9.645872 0.000000 -8.653637
RightHandThumb1 -24.326973 -0.000000 -32.862282
LeftUpLeg 9.200452 11.959883 8.122743
LeftLeg -1.788079 -0.000000 0.000000
LeftFoot -18.362881 2.922103 -21.544842
LeftToeBase 51.277026 -0.000000 -0.000000
RightUpLeg -87.562754 -4.127308 15.133963
RightLeg 101.725235 -0.000000 -0.000000
RightFoot 26.049859 -37.006394 -10.247117
RightToeBase 22.789902 -0.000000 -0.000000
1041
root 18.701925 36.781156 -20.817176 -190.581186 -14.244012 -167.666803
Spine 7.602690 9.764778 -22.810894
Head -3.205650 -24.349042 28.859408
LeftShoulder -6.167831 -21.826362 4.268180
LeftArm -29.605582 -0.874082 -45.582314
LeftForeArm -8.279774 -0.000000 7.896413
LeftHand -6.581849 -0.000000 7.777067
LeftHandThumb1 -26.253704 0.000000 33.147579
RightShoulder -11.098922 -8.028388 -0.586654
RightArm 1.409260 60.064170 18.420658
RightForeArm -15.395741 0.000000 51.120308
RightHand -9.554162 -0.000000 -9.150295
RightHandThumb1 -24.326973 -0.000000 -32.862282
LeftUpLeg 9.211966 12.028278 8.283045
LeftLeg -1.656041 -0.000000 0.000000
LeftFoot -18.418912 2.944452 -21.501824
LeftToeBase 51.180861 -0.000000 -0.000000
RightUpLeg -87.428331 -4.125469 15.314682
RightLeg 101.625122 -0.000000 -0.000000
RightFoot 26.020809 -37.010837 -10.182835
RightToeBase 22.829524 -0.000000 -0.000000
1042
root 18.732343 36.790312 -20.831703 -190.681053 -14.197593 -167.576835
Spine 7.599328 9.955680 -23.037381
Head -3.170114 -24.454064 28.887691
LeftShoulder -6.374598 -21.710508 4.268225
LeftArm -29.800019 -1.070442 -45.325794
LeftForeArm -8.465650 0.000000 7.859613
LeftHand -6.628894 -0.000000 7.626710
LeftHandThumb1 -26.253704 0.000000 33.147579
RightShoulder -11.211173 -8.049838 -0.994070
RightArm 1.620405 60.550851 17.544355
RightForeArm -15.127260 -0.000000 50.533837
RightHand -9.656821 0.000000 -9.688069
RightHandThumb1 -24.326973 -0.000000 -32.862282
LeftUpLeg 9.259771 12.101946 8.439558
LeftLeg -1.568981 -0.000000 0.000000
LeftFoot -18.442614 2.981471 -21.422392
LeftToeBase 50.986632 -0.000000 -0.000000
RightUpLeg -87.297106 -4.117728 15.476985
RightLeg 101.527053 -0.000000 -0.000000
RightFoot 26.040668 -37.043469 -10.132891
RightToeBase 22.801904 -0.000000 -0.000000
1043
root 18.769569 36.801265 -20.839932 -190.766357 -14.223788 -167.478230
Spine 7.637898 10.089134 -23.271184
Head -3.183375 -24.623208 28.931028
LeftShoulder -6.577033 -21.616404 4.255279
LeftArm -29.987189 -1.178777 -45.095391
LeftForeArm -8.645486 -0.000000 7.830770
LeftHand -6.726413 -0.000000 7.761960
LeftHandThumb1 -26.253704 0.000000 33.147579
RightShoulder -11.171449 -7.887103 -1.536987
RightArm 1.323810 60.982773 16.432326
RightForeArm -15.023619 -0.000000 50.082905
RightHand -9.589681 -0.000000 -10.022123
RightHandThumb1 -24.326973 -0.000000 -32.862282
LeftUpLeg 9.220771 12.060935 8.579517
LeftLeg -1.408069 -0.000000 0.000000
LeftFoot -18.480987 3.077723 -21.334758
LeftToeBase 50.762472 -0.000000 -0.000000
RightUpLeg -87.201475 -4.148007 15.599078
RightLeg 101.421301 -0.000000 -0.000000
RightFoot 26.051139 -37.011969 -10.046215
RightToeBase 22.815917 -0.000000 -0.000000
1044
root 18.806104 36.812355 -20.854091 -190.844676 -14.226761 -167.367570
Spine 7.624124 10.219614 -23.499310
Head -3.147734 -24.801430 28.971773
LeftShoulder -6.804440 -21.520469 4.262604
LeftArm -30.228398 -1.331535 -44.834562
LeftForeArm -8.992131 -0.000000 7.826290
LeftHand -6.717417 0.000000 7.602233
LeftHandThumb1 -26.253704 0.000000 33.147579
RightShoulder -11.111645 -7.753506 -2.056668
RightArm 1.008859 61.450030 15.288395
RightForeArm -14.808178 -0.000000 49.689148
RightHand -9.584282 -0.000000 -10.519304
RightHandThumb1 -24.326973 -0.000000 -32.862282
LeftUpLeg 9.194102 12.120624 8.755308
LeftLeg -1.262840 -0.000000 0.000000
LeftFoot -18.515070 3.058491 -21.308449
LeftToeBase 50.670418 -0.000000 -0.000000
RightUpLeg -87.114395 -4.165666 15.735549
RightLeg 101.355250 -0.000000 -0.000000
RightFoot 26.019498 -36.997911 -9.979010
RightToeBase 22.684750 -0.000000 -0.000000
1045
root 18.843402 36.824679 -20.870924 -190.921323 -14.235987 -167.235354
Spine 7.595885 10.365268 -23.702965
Head -3.123479 -25.000048 29.025600
LeftShoulder -7.027067 -21.415274 4.287942
LeftArm -30.452334 -1.448856 -44.640724
LeftForeArm -9.375018 0.000000 7.786256
LeftHand -6.727589 0.000000 7.405838
LeftHandThumb1 -26.253704 0.000000 33.147579
RightShoulder -11.043954 -7.550153 -2.621771
RightArm 0.634625 61.945520 14.172085
RightForeArm -14.728495 -0.000000 49.390182
RightHand -9.562407 -0.000000 -10.868001
RightHandThumb1 -24.326973 -0.000000 -32.862282
LeftUpLeg 9.159959 12.139508 8.944422
LeftLeg -1.116773 -0.000000 0.000000
LeftFoot -18.560586 3.092485 -21.266084
LeftToeBase 50.534457 -0.000000 -0.000000
RightUpLeg -87.036100 -4.202059 15.899152
RightLeg 101.288727 -0.000000 -0.000000
RightFoot 26.037940 -37.002427 -10.011274
RightToeBase 22.663231 -0.000000 -0.000000
1046
root 18.882645 36.838408 -20.884309 -191.009619 -14.252791 -167.091694
Spine 7.595484 10.492984 -23.891050
Head -3.092885 -25.204390 29.069293
LeftShoulder -7.240801 -21.395945 4.298274
LeftArm -30.757112 -1.528141 -44.425447
LeftForeArm -9.591981 -0.000000 7.748910
LeftHand -6.708419 -0.000000 7.222822
LeftHandThumb1 -26.253704 0.000000 33.147579
RightShoulder -11.144773 -7.544575 -3.051175
RightArm 0.966435 62.657879 13.533468
RightForeArm -14.755638 -0.000000 49.076133
RightHand -9.622556 -0.000000 -11.214893
RightHandThumb1 -24.326973 -0.000000 -32.862282
LeftUpLeg 9.125801 12.127794 9.141824
LeftLeg -0.968479 -0.000000 0.000000
LeftFoot -18.598483 3.163218 -21.194631
LeftToeBase 50.342371 -0.000000 -0.000000
RightUpLeg -86.951862 -4.231956 16.045058
RightLeg 101.198561 -0.000000 -0.000000
RightFoot 26.048442 -37.068505 -9.981754
RightToeBase 22.761754 -0.000000 -0.000000
1047
root 18.917224 36.851137 -20.896708 -191.098716 -14.276324 -166.980325
Spine 7.614230 10.661063 -24.098172
Head -3.084722 -25.401535 29.101696
LeftShoulder -7.433337 -21.299476 4.292646
LeftArm -30.965028 -1.682960 -44.222226
LeftForeArm -9.855467 -0.000000 7.686670
LeftHand -6.761969 -0.000000 7.182225
LeftHandThumb1 -26.253704 0.000000 33.147579
RightShoulder -11.089664 -7.264907 -3.598711
RightArm 0.568429 63.107944 12.368385
RightForeArm -14.712148 -0.000000 48.867082
RightHand -9.612519 -0.000000 -11.685127
RightHandThumb1 -24.326973 -0.000000 -32.862282
LeftUpLeg 9.106728 12.179767 9.309398
LeftLeg -0.837341 -0.000000 0.000000
LeftFoot -18.597466 3.176097 -21.176173
LeftToeBase 50.250571 -0.000000 -0.000000
RightUpLeg -86.881960 -4.283753 16.112483
RightLeg 101.148733 -0.000000 -0.000000
RightFoot 26.067780 -37.028816 -9.949403
RightToeBase 22.741455 -0.000000 -0.000000
1048
root 18.959679 36.863420 -20.909763 -191.200415 -14.332538 -166.827852
Spine 7.624642 10.782042 -24.272039
Head -2.980945 -25.623626 29.063390
LeftShoulder -7.593459 -21.312602 4.321948
LeftArm -31.333503 -1.691296 -44.093122
LeftForeArm -10.024737 -0.000000 7.683661
LeftHand -6.886745 -0.000000 7.244182
LeftHandThumb1 -26.253704 0.000000 33.147579
RightShoulder -10.939698 -7.204771 -4.138440
RightArm 0.078759 63.784768 11.191987
RightForeArm -14.830287 0.000000 48.806044
RightHand -9.616999 -0.000000 -11.819093
RightHandThumb1 -24.326973 -0.000000 -32.862282
LeftUpLeg 9.092179 12.142825 9.512047
LeftLeg -0.741102 -0.000000 0.000000
LeftFoot -18.644687 3.247413 -21.154301
LeftToeBase 50.127297 -0.000000 -0.000000
RightUpLeg -86.805234 -4.355800 16.247748
RightLeg 101.057987 -0.000000 -0.000000
RightFoot 26.180334 -37.125256 -10.048998
RightToeBase 22.760118 -0.000000 -0.000000
1049
root 18.996258 36.877331 -20.924017 -191.287883 -14.398730 -166.700508
Spine 7.632035 10.932906 -24.473175
Head -2.931497 -25.814874 29.075549
LeftShoulder -7.747181 -21.259098 4.307780
LeftArm -31.619466 -1.734589 -43.936730
LeftForeArm -10.391217 -0.000000 7.659481
LeftHand -6.833579 -0.000000 7.158485
LeftHandThumb1 -26.253704 0.000000 33.147579
RightShoulder -10.978682 -7.093524 -4.606424
RightArm 0.152663 64.521776 10.460164
RightForeArm -14.982246 -0.000000 48.751194
RightHand -9.583420 -0.000000 -12.060994
RightHandThumb1 -24.326973 -0.000000 -32.862282
LeftUpLeg 9.055925 12.097213 9.682452
LeftLeg -0.608242 -0.000000 0.000000
LeftFoot -18.662774 3.294730 -21.174240
LeftToeBase 50.004135 -0.000000 -0.000000
RightUpLeg -86.741942 -4.446687 16.326433
RightLeg 100.977870 -0.000000 -0.000000
RightFoot 26.272577 -37.189613 -10.136104
RightToeBase 22.762393 -0.000000 -0.000000
1050
root 19.036011 36.889694 -20.938663 -191.368718 -14.452036 -166.560910
Spine 7.617885 11.078071 -24.657359
Head -2.877158 -26.082264 29.061170
LeftShoulder -7.933288 -21.234929 4.349413
LeftArm -31.907391 -1.852906 -43.776409
LeftForeArm -10.572081 0.000000 7.594870
LeftHand -6.817239 0.000000 6.996175
LeftHandThumb1 -26.253704 0.000000 33.147579
RightShoulder -10.911770 -6.812853 -5.168408
RightArm -0.125504 65.036641 9.512198
RightForeArm -15.135624 -0.000000 48.814491
RightHand -9.734170 -0.000000 -12.474810
RightHandThumb1 -24.326973 -0.000000 -32.862282
LeftUpLeg 9.032073 12.113020 9.880624
LeftLeg -0.511847 -0.000000 0.000000
LeftFoot -18.662855 3.276273 -21.149444
LeftToeBase 49.875958 -0.000000 -0.000000
RightUpLeg -86.694817 -4.508376 16.394850
RightLeg 100.917798 -0.000000 -0.000000
RightFoot 26.236094 -37.273239 -10.031039
RightToeBase 22.821476 -0.000000 -0.000000
1051
root 19.080068 36.902450 -20.953264 -191.455747 -14.516734 -166.409518
Spine 7.612451 11.223748 -24.849418
Head -2.850305 -26.323090 29.098334
LeftShoulder -8.094880 -21.168397 4.418120
LeftArm -32.190845 -2.039819 -43.654754
LeftForeArm -10.602891 -0.000000 7.530940
LeftHand -6.613686 0.000000 7.140995
LeftHandThumb1 -26.253704 0.000000 33.147579
RightShoulder -10.855252 -6.465678 -5.734778
RightArm -0.327858 65.474271 8.667796
RightForeArm -15.344056 -0.000000 48.932977
RightHand -9.774847 -0.000000 -12.968234
RightHandThumb1 -24.326973 -0.000000 -32.862282
LeftUpLeg 9.015554 12.084881 10.089877
LeftLeg -0.438931 -0.000000 0.000000
LeftFoot -18.672727 3.294120 -21.132836
LeftToeBase 49.798670 -0.000000 -0.000000
RightUpLeg -86.643215 -4.565868 16.433434
RightLeg 100.871364 -0.000000 -0.000000
RightFoot 26.155993 -37.200455 -9.938087
RightToeBase 22.868781 -0.000000 -0.000000
1052
root 19.118541 36.913030 -20.966485 -191.546936 -14.554304 -166.302633
Spine 7.607915 11.402417 -25.067798
Head -2.765687 -26.517769 29.074928
LeftShoulder -8.286837 -21.126635 4.473981
LeftArm -32.481416 -2.161450 -43.542465
LeftForeArm -10.775741 -0.000000 7.557385
LeftHand -6.623094 -0.000000 7.249418
LeftHandThumb1 -26.253704 0.000000 33.147579
RightShoulder -10.800555 -6.233593 -6.241729
RightArm -0.344592 66.081960 7.960978
RightForeArm -15.715080 -0.000000 49.124016
RightHand -9.788529 -0.000000 -13.215992
RightHandThumb1 -24.326973 -0.000000 -32.862282
LeftUpLeg 9.029752 12.100889 10.262587
LeftLeg -0.374130 -0.000000 0.000000
LeftFoot -18.670564 3.281061 -21.170086
LeftToeBase 49.774362 -0.000000 -0.000000
RightUpLeg -86.590103 -4.608785 16.427311
RightLeg 100.826287 -0.000000 -0.000000
RightFoot 26.151397 -37.204176 -9.922997
RightToeBase 22.865225 -0.000000 -0.000000
